<svg width="16" height="16" viewBox="0 0 16 16" fill="none" xmlns="http://www.w3.org/2000/svg">
<path d="M7.33325 5.99967H8.66658V4.66634H7.33325M7.99992 13.333C5.05992 13.333 2.66659 10.9397 2.66659 7.99967C2.66659 5.05967 5.05992 2.66634 7.99992 2.66634C10.9399 2.66634 13.3333 5.05967 13.3333 7.99967C13.3333 10.9397 10.9399 13.333 7.99992 13.333ZM7.99992 1.33301C7.12444 1.33301 6.25753 1.50545 5.4487 1.84048C4.63986 2.17551 3.90493 2.66657 3.28587 3.28563C2.03563 4.53587 1.33325 6.23156 1.33325 7.99967C1.33325 9.76778 2.03563 11.4635 3.28587 12.7137C3.90493 13.3328 4.63986 13.8238 5.4487 14.1589C6.25753 14.4939 7.12444 14.6663 7.99992 14.6663C9.76803 14.6663 11.4637 13.964 12.714 12.7137C13.9642 11.4635 14.6666 9.76778 14.6666 7.99967C14.6666 7.12419 14.4941 6.25729 14.1591 5.44845C13.8241 4.63961 13.333 3.90469 12.714 3.28563C12.0949 2.66657 11.36 2.17551 10.5511 1.84048C9.7423 1.50545 8.8754 1.33301 7.99992 1.33301ZM7.33325 11.333H8.66658V7.33301H7.33325V11.333Z" fill="#757575"/>
</svg>
