<?xml version="1.0" encoding="UTF-8"?>
<svg id="_레이어_2" data-name="레이어_2" xmlns="http://www.w3.org/2000/svg" viewBox="0 0 655.82 322.54">
  <defs>
    <style>
      .cls-1, .cls-2 {
        fill: #606060;
      }

      .cls-3 {
        stroke-width: 7px;
      }

      .cls-3, .cls-2, .cls-4 {
        stroke: #606060;
        stroke-miterlimit: 10;
      }

      .cls-3, .cls-4 {
        fill: none;
      }

      .cls-4 {
        stroke-width: 2px;
      }
    </style>
  </defs>
  <g id="_레이어_1-2" data-name="레이어_1">
    <g>
      <ellipse class="cls-3" cx="327.91" cy="164.71" rx="333.07" ry="134.55" transform="translate(-30.6 86.46) rotate(-14.36)"/>
      <ellipse class="cls-4" cx="325.51" cy="155.33" rx="333.07" ry="134.55" transform="translate(-28.35 85.57) rotate(-14.36)"/>
      <path class="cls-2" d="M122.74,137.76c6.25,0,11.63,2.46,16.14,7.38,3.79,4.15,5.68,8.3,5.68,12.45,0,1.57-1.09,2.36-3.26,2.36l-2.78-.12h-1.39l-3.68.06-11.41.18-5.97.06-2.05-.06c-1.17,0-1.91.14-2.23.42-.44.4-.66,1.15-.66,2.24,0,5.34,1.74,10.05,5.22,14.15s7.49,6.15,12.04,6.15c5.11,0,9.19-1.48,12.25-4.45l1.93-1.89c.32-.33.67-.49,1.03-.49.89,0,1.33.42,1.33,1.27,0,1.17-1.55,3.12-4.66,5.86-5.48,4.84-11.37,7.25-17.65,7.25-6.97,0-12.66-2.4-17.05-7.19-4.39-4.8-6.59-10.98-6.59-18.56s2.35-13.68,7.04-19.04c4.69-5.36,10.27-8.04,16.72-8.04ZM121.05,140.85c-2.73,0-5.11,1.34-7.15,4.02-2.04,2.68-3.07,5.84-3.07,9.48,0,1.16.29,1.86.87,2.1.58.24,2.15.36,4.72.36,1.32,0,2.73-.04,4.21-.12,3.61-.16,5.69-.24,6.25-.24,3.53,0,5.29-1.08,5.29-3.24,0-3.24-1.13-6.11-3.4-8.61-2.26-2.5-4.84-3.75-7.72-3.75Z"/>
      <path class="cls-2" d="M205.5,138.55v37.44c0,3.87.32,6.25.97,7.16.64.91,2.38,1.36,5.2,1.36l1.39-.06c.48,0,.85.04,1.09.12.68.25,1.03.7,1.03,1.35,0,1.44-1.37,2.15-4.12,2.15h-2.91c-1.66,0-2.95.04-3.88.12-2.47.16-5.34.65-8.61,1.45-.4.12-.77.18-1.09.18-.89,0-1.33-.75-1.33-2.24,0-.81.04-1.49.12-2.06.08-.81.12-1.41.12-1.81,0-1.21-.26-1.83-.78-1.87-.2,0-.52.24-.97.73l-2.17,2.24c-3.7,3.87-8.15,5.8-13.34,5.8-5.95,0-10.44-1.65-13.46-4.95-3.02-3.3-4.53-8.19-4.53-14.67,0-8.57.16-16,.48-22.28.04-1.13.06-2.09.06-2.9,0-2.74-1.19-4.21-3.57-4.41l-2.42-.18c-1.13-.08-1.65-.63-1.57-1.66.04-.78.66-1.3,1.85-1.57,1.19-.27,3.49-.4,6.88-.4,3.15,0,5.96-.4,8.43-1.21,1.09-.32,1.94-.48,2.55-.48.69,0,1.03.46,1.03,1.39,0,1.09-.04,2.19-.12,3.32-.36,4.27-.54,11.73-.54,22.4,0,8.21.74,13.7,2.22,16.45s4.45,4.14,8.9,4.14c3.49,0,6.17-1.05,8.06-3.14,1.88-2.1,2.83-5.09,2.83-8.99v-22.48c0-3.41-.31-5.51-.94-6.3-.63-.78-2.39-1.36-5.29-1.72-1.25-.12-1.87-.61-1.87-1.48,0-1.27,1.21-1.91,3.64-1.91,7.03,0,11.9-.48,14.61-1.45.53-.2.95-.3,1.27-.3.56-.04.85.36.85,1.21l-.06,1.51Z"/>
      <path class="cls-2" d="M226.84,195.95v-41.23l.12-2.53-.3-2.65c-.6-2.29-2.22-3.5-4.84-3.62-.44,0-.87.02-1.27.06l-.54.06c-.81-.04-1.21-.51-1.21-1.42s.4-1.38,1.21-1.54l2.84-.42c5.16-.85,9.05-2.22,11.67-4.11,2-1.41,3.19-2.12,3.55-2.12.57,0,.9.45.98,1.34l.06,1.76v4.87c.24.85.64,1.3,1.21,1.34.2,0,.54-.18,1.03-.55,3.94-3.09,6.87-5.08,8.78-5.97,1.91-.89,4.25-1.34,7.03-1.34,6.08,0,11.04,2.1,14.88,6.31,3.84,4.21,5.77,9.63,5.77,16.27,0,9.62-3.02,17.35-9.05,23.19-4.83,4.67-10.08,7.01-15.75,7.01-5.27,0-9.26-.66-11.95-1.96-.44-.2-.8-.31-1.09-.31-.6,0-.91.74-.91,2.23v5.31c0,3.58.63,6.1,1.9,7.55,1.27,1.45,2.85,2.37,6.32,2.78,1.53.16,2.3.72,2.3,1.66,0,1.31-.65,1.92-1.94,1.84-.65-.04-1.37-.16-2.18-.36-3.19-.77-5.13-1.15-7.39-1.15-1.45,0-3.64.1-6.54.3l-5.21.42c-1.25.08-2.1.12-2.54.12-1.54,0-2.3-.58-2.3-1.72,0-.74.52-1.29,1.57-1.66,1.65-.6,2.7-1.47,3.14-2.59.44-1.13.67-3.52.67-7.17ZM239.05,152.31v23.41c0,2.61,1.64,5.06,4.93,7.34,3.28,2.29,6.82,3.43,10.61,3.43,3.99,0,7.17-1.58,9.55-4.75,2.38-3.17,3.57-7.4,3.57-12.7,0-6.46-1.79-11.93-5.38-16.4-3.59-4.47-7.98-6.71-13.18-6.71-2.78,0-5.16.62-7.13,1.87-1.98,1.24-2.96,2.75-2.96,4.51Z"/>
      <path class="cls-2" d="M304.47,151.41v22.73l.06,1.81c0,3.09.42,5.34,1.27,6.72.85,1.39,2.44,2.38,4.78,2.98l2.72.72c.89.21,1.31.68,1.27,1.42-.04,1.03-.63,1.5-1.76,1.42-.57-.04-1.35-.16-2.36-.36-2.91-.6-5.88-.91-8.91-.91-1.86,0-4.93.24-9.21.71-1.74.17-2.97.26-3.7.26-1.62,0-2.42-.52-2.42-1.55,0-.53.4-.95,1.21-1.24,3.22-1.17,4.84-4.21,4.84-9.13v-58.94l-.3-2.84c-.32-1.45-.9-2.47-1.72-3.05-.83-.58-2.41-1.06-4.75-1.42-.85-.12-1.27-.54-1.27-1.27,0-.68.28-1.17.85-1.45.57-.28,2.08-.68,4.55-1.21,3.88-.81,7.54-2.24,10.98-4.29,1.93-1.13,3.18-1.69,3.75-1.69.64,0,.97.4.97,1.21,0,.57-.08,1.57-.24,3.03-.4,3.92-.6,8.62-.6,14.11v26.69c0,.6.12.93.36.97l.54-.42c5.07-5.68,10.42-8.52,16.05-8.52,6.2,0,10.98,2.39,14.36,7.18,2.49,3.58,3.74,9.57,3.74,17.97v10.07l.06,2.41c0,3.22.15,5.35.45,6.39.3,1.05,1.06,1.99,2.27,2.83,1.29.93,3,1.47,5.14,1.63,1.37.08,2.06.54,2.06,1.36s-.61,1.24-1.82,1.24l-2.61.12-2.12-.18c-2.83-.36-5.31-.54-7.45-.54-4.36,0-8.1.24-11.21.73-.49.08-.87.12-1.15.12-.97,0-1.45-.45-1.45-1.36,0-.58.36-1.01,1.09-1.3,1.85-.76,3.07-1.77,3.66-3.01.58-1.25.88-3.46.88-6.63v-12.54c0-6.67-.88-11.37-2.65-14.11-2.33-3.62-5.61-5.43-9.86-5.43-4.61,0-8.06,2.19-10.34,6.57Z"/>
      <path class="cls-2" d="M382.21,137.89c7.62,0,13.91,2.42,18.86,7.25,4.96,4.83,7.44,10.97,7.44,18.42s-2.69,14.12-8.07,19.29c-5.38,5.17-12.08,7.76-20.1,7.76-7.54,0-13.81-2.39-18.83-7.19-5.02-4.79-7.53-10.81-7.53-18.06,0-7.61,2.75-14.09,8.25-19.44,5.5-5.35,12.16-8.03,19.98-8.03ZM379.08,141.21c-3.89,0-6.99,1.65-9.27,4.94-2.29,3.29-3.43,7.73-3.43,13.31,0,7.63,1.77,14.17,5.3,19.63,3.53,5.46,7.79,8.19,12.77,8.19,3.77,0,6.85-1.55,9.24-4.67,2.39-3.11,3.58-7.12,3.58-12.01,0-8.19-1.77-15.13-5.3-20.84-3.53-5.7-7.83-8.55-12.89-8.55Z"/>
      <path class="cls-2" d="M436.14,158.55v16.96c0,6.36,2.98,9.94,8.95,10.74,1.25.16,1.87.66,1.87,1.48,0,1.03-.46,1.54-1.39,1.54-.44,0-1.01-.06-1.7-.18-4.04-.6-8.2-.91-12.48-.91-2.26,0-4.3.08-6.12.24l-3.76.36c-.69.08-1.39.12-2.12.12-1.13,0-1.7-.53-1.7-1.6,0-.74.5-1.23,1.51-1.48,3.18-.76,4.78-3.76,4.78-8.98l-.06-2.53v-21.58c0-2.89-.37-4.81-1.12-5.76-.75-.94-2.35-1.52-4.81-1.72-.93-.08-1.39-.51-1.39-1.3,0-.9.55-1.44,1.64-1.6,5.54-.85,10.28-2.4,14.2-4.66l2.36-1.39c.32-.2.62-.3.91-.3.6,0,.91.44.91,1.33,0,.28-.02.87-.06,1.75l-.18,3.39-.24,3.75.06.67c.16.56.46.87.9.91.4.04,1.28-.93,2.64-2.9,1.08-1.53,2.75-3.17,5-4.93,2.26-1.75,3.8-2.63,4.64-2.63,1.38,0,3.44,1.05,6.17,3.14,2.74,2.1,4.13,3.67,4.17,4.72,0,.36-.65,1.77-1.95,4.23-1.67,3.1-3.13,4.66-4.39,4.66-.52,0-1-.2-1.44-.6l-1.68-1.51c-2.04-1.89-4.38-2.84-7.02-2.84-4.72,0-7.08,3.14-7.08,9.42Z"/>
      <path class="cls-2" d="M483.47,140.47v34.19c0,4.1.61,6.96,1.84,8.56,1.23,1.61,3.52,2.51,6.86,2.71,1.33.08,2,.56,2,1.42,0,1.07-1.6,1.6-4.79,1.6-.4,0-1.27-.06-2.6-.17l-4.54-.46c-2.5-.23-4.16-.34-4.97-.34-2.14,0-5.03.28-8.66.85-.89.16-1.58.24-2.06.24-.85,0-1.27-.39-1.27-1.18,0-.54.26-.95.79-1.24l2.06-1.02c.89-.44,1.64-1.49,2.27-3.13.62-1.65.94-3.38.94-5.18l-.06-2.53v-20.43c0-3.13-.33-5.3-1-6.51s-1.86-1.81-3.6-1.81h-1.39c-.77,0-1.29-.16-1.57-.49-.12-.16-.18-.45-.18-.86,0-1.02,1.23-1.8,3.7-2.34,6.15-1.29,10.98-3.24,14.5-5.86.44-.28.79-.42,1.03-.42.56.04.85.42.85,1.15l-.06.54c-.04.36-.06,1.27-.06,2.71ZM476.97,107.48c.84,0,2.35,1.37,4.52,4.11l2.53,3.26c.6.77.92,1.47.96,2.12.04.97-1.06,2.8-3.31,5.5-2.25,2.7-3.79,4.05-4.64,4.05-.56,0-1.11-.24-1.63-.73l-2.83-3.45-2.65-3.02c-.68-.85-1.02-1.53-1.02-2.06,0-.81,1.18-2.64,3.55-5.5,2.37-2.86,3.87-4.29,4.52-4.29Z"/>
      <path class="cls-2" d="M525.43,160.29c.71-.13,1.26-.69,1.41-1.39.27-1.34.4-2.53.4-3.55,0-4.03-.97-7.32-2.91-9.88-1.94-2.55-4.43-3.83-7.47-3.83-3.88,0-5.82,1.6-5.82,4.81,0,.6.04,1.18.12,1.74l.18,1.14c0,2.73-3.12,4.09-9.36,4.09-1.62,0-2.39-.7-2.31-2.12,0-.28.1-.73.3-1.33.12-.44.24-.97.36-1.57.52-2.58,1.75-4.55,3.69-5.92,4.27-3.06,9.43-4.59,15.48-4.59,6.97,0,12.19,1.61,15.66,4.83,2.66,2.46,3.99,6.72,3.99,12.8,0,3.06-.12,6.9-.36,11.53-.24,5.31-.36,8.86-.36,10.63,0,4.15,1.65,6.22,4.96,6.22,1.01,0,6.31-.04,6.87-.25.17-.06.34-.12.52-.13,7.3-.67.98.73-4.85,3.2-.04.02-.08.03-.11.05l-2.26,1.16s-.06.03-.09.05l-2.01,1.18c-1.45.77-3.04,1.15-4.78,1.15-3.13,0-5.81-1.78-8.06-5.35-.52-.82-1.58-1.09-2.41-.59-6.82,4.16-12.54,6.24-17.16,6.24-3.43,0-6.11-.99-8.04-2.97-1.93-1.98-2.9-4.72-2.9-8.24,0-6.38,2.78-11.03,8.33-13.93,3.29-1.67,9.62-3.39,19-5.18ZM525.37,163.58c-3.47-.24-6.77.99-9.91,3.69-3.14,2.7-4.72,5.66-4.72,8.89,0,5.32,2.14,7.98,6.41,7.98,2.66,0,4.98-.62,6.95-1.87,1.09-.64,1.83-1.75,2.24-3.33.4-1.57.6-4.17.6-7.8l.06-4.65v-1.03c0-.16-.02-.31-.06-.46l-.04-.14c-.19-.7-.79-1.22-1.51-1.27,0,0-.01,0-.02,0Z"/>
      <path class="cls-1" d="M545.85,184.49c.73-1.33,1.69-1.47,2.92-1.71,3.12-.68,6.2-1.59,9.23-2.62,8.1-2.8,15.85-6.59,23.17-11.06,20.07-12.06,30.32-30.38,56.32-31.11,0,0,.09,1,.09,1-4.25.67-8.48,1.52-12.55,2.9-12.67,3.95-21.4,13.8-31.48,22.13-6.86,5.54-14.31,10.34-22.23,14.24-6.97,3.35-14.28,6.09-21.85,7.76-1.26.29-2.32.56-3.49-.52,0,0-.12-.99-.12-.99h0Z"/>
    </g>
  </g>
</svg>