<svg width="14" height="14" viewBox="0 0 14 14" fill="none" xmlns="http://www.w3.org/2000/svg">
<path d="M4.52085 1.60449H3.06252C2.25711 1.60449 1.60419 2.25741 1.60419 3.06283V4.52116C1.60419 5.32657 2.25711 5.97949 3.06252 5.97949H4.52085C5.32627 5.97949 5.97919 5.32657 5.97919 4.52116V3.06283C5.97919 2.25741 5.32627 1.60449 4.52085 1.60449Z" stroke="#363636" stroke-width="0.875" stroke-linecap="round" stroke-linejoin="round"/>
<path d="M10.9375 1.60449H9.47921C8.67379 1.60449 8.02087 2.25741 8.02087 3.06283V4.52116C8.02087 5.32657 8.67379 5.97949 9.47921 5.97949H10.9375C11.743 5.97949 12.3959 5.32657 12.3959 4.52116V3.06283C12.3959 2.25741 11.743 1.60449 10.9375 1.60449Z" stroke="#363636" stroke-width="0.875" stroke-linecap="round" stroke-linejoin="round"/>
<path d="M4.52085 8.02148H3.06252C2.25711 8.02148 1.60419 8.6744 1.60419 9.47982V10.9382C1.60419 11.7436 2.25711 12.3965 3.06252 12.3965H4.52085C5.32627 12.3965 5.97919 11.7436 5.97919 10.9382V9.47982C5.97919 8.6744 5.32627 8.02148 4.52085 8.02148Z" stroke="#363636" stroke-width="0.875" stroke-linecap="round" stroke-linejoin="round"/>
<path d="M4.66669 3.79199C4.66669 3.30874 4.27494 2.91699 3.79169 2.91699C3.30844 2.91699 2.91669 3.30874 2.91669 3.79199C2.91669 4.27524 3.30844 4.66699 3.79169 4.66699C4.27494 4.66699 4.66669 4.27524 4.66669 3.79199Z" fill="#363636"/>
<path d="M11.0834 3.79199C11.0834 3.30874 10.6916 2.91699 10.2084 2.91699C9.72512 2.91699 9.33337 3.30874 9.33337 3.79199C9.33337 4.27524 9.72512 4.66699 10.2084 4.66699C10.6916 4.66699 11.0834 4.27524 11.0834 3.79199Z" fill="#363636"/>
<path d="M4.66669 10.209C4.66669 9.72574 4.27494 9.33398 3.79169 9.33398C3.30844 9.33398 2.91669 9.72574 2.91669 10.209C2.91669 10.6922 3.30844 11.084 3.79169 11.084C4.27494 11.084 4.66669 10.6922 4.66669 10.209Z" fill="#363636"/>
<path d="M9.33337 8.45898C9.33337 7.97574 8.94162 7.58398 8.45837 7.58398C7.97512 7.58398 7.58337 7.97574 7.58337 8.45898C7.58337 8.94223 7.97512 9.33398 8.45837 9.33398C8.94162 9.33398 9.33337 8.94223 9.33337 8.45898Z" fill="#363636"/>
<path d="M11.0834 10.209C11.0834 9.72574 10.6916 9.33398 10.2084 9.33398C9.72512 9.33398 9.33337 9.72574 9.33337 10.209C9.33337 10.6922 9.72512 11.084 10.2084 11.084C10.6916 11.084 11.0834 10.6922 11.0834 10.209Z" fill="#363636"/>
<path d="M12.8334 11.959C12.8334 11.4757 12.4416 11.084 11.9584 11.084C11.4751 11.084 11.0834 11.4757 11.0834 11.959C11.0834 12.4422 11.4751 12.834 11.9584 12.834C12.4416 12.834 12.8334 12.4422 12.8334 11.959Z" fill="#363636"/>
<path d="M12.8334 8.45898C12.8334 7.97574 12.4416 7.58398 11.9584 7.58398C11.4751 7.58398 11.0834 7.97574 11.0834 8.45898C11.0834 8.94223 11.4751 9.33398 11.9584 9.33398C12.4416 9.33398 12.8334 8.94223 12.8334 8.45898Z" fill="#363636"/>
<path d="M9.33337 11.959C9.33337 11.4757 8.94162 11.084 8.45837 11.084C7.97512 11.084 7.58337 11.4757 7.58337 11.959C7.58337 12.4422 7.97512 12.834 8.45837 12.834C8.94162 12.834 9.33337 12.4422 9.33337 11.959Z" fill="#363636"/>
</svg>
