<svg width="14" height="14" viewBox="0 0 14 14" fill="none" xmlns="http://www.w3.org/2000/svg">
<path d="M3.5 6.41699C3.5 4.76733 3.5 3.94191 4.01275 3.42974C4.52492 2.91699 5.35033 2.91699 7 2.91699H8.75C10.3997 2.91699 11.2251 2.91699 11.7372 3.42974C12.25 3.94191 12.25 4.76733 12.25 6.41699V9.33366C12.25 10.9833 12.25 11.8087 11.7372 12.3209C11.2251 12.8337 10.3997 12.8337 8.75 12.8337H7C5.35033 12.8337 4.52492 12.8337 4.01275 12.3209C3.5 11.8087 3.5 10.9833 3.5 9.33366V6.41699Z" stroke="#363636" stroke-width="0.875"/>
<path d="M3.5 11.0837C3.03587 11.0837 2.59075 10.8993 2.26256 10.5711C1.93437 10.2429 1.75 9.79779 1.75 9.33366V5.83366C1.75 3.63391 1.75 2.53374 2.43367 1.85066C3.11733 1.16758 4.21692 1.16699 6.41667 1.16699H8.75C9.21413 1.16699 9.65925 1.35137 9.98744 1.67956C10.3156 2.00774 10.5 2.45286 10.5 2.91699" stroke="#363636" stroke-width="0.875"/>
</svg>
