<svg width="14" height="14" viewBox="0 0 14 14" fill="none" xmlns="http://www.w3.org/2000/svg">
<g clip-path="url(#clip0_0_2612)">
<path d="M6.9611 6.7273C8.0111 6.7273 8.82776 5.87174 8.82776 4.82174C8.82776 3.77174 7.97221 2.95508 6.92221 2.95508C5.87221 2.95508 5.05554 3.81063 5.05554 4.82174C5.05554 5.87174 5.9111 6.7273 6.9611 6.7273ZM6.92221 3.73286C6.9611 3.73286 6.9611 3.73286 6.92221 3.73286C7.54443 3.73286 8.04999 4.23841 8.04999 4.86063C8.04999 5.48286 7.54443 5.94952 6.92221 5.94952C6.29999 5.94952 5.83332 5.44397 5.83332 4.86063C5.83332 4.23841 6.33888 3.73286 6.92221 3.73286Z" fill="#363636"/>
<path d="M12.7167 6.49468C11.9778 5.83357 11.0056 5.48357 9.99445 5.52246H9.68334C9.60557 5.83357 9.4889 6.10579 9.33334 6.33912C9.56668 6.30024 9.76112 6.30024 9.99445 6.30024C10.7333 6.26135 11.4722 6.49468 12.0556 6.92246V9.72246H12.8333V6.61135L12.7167 6.49468Z" fill="#363636"/>
<path d="M9.09999 3.03299C9.29443 2.56632 9.83888 2.33299 10.3444 2.52743C10.8111 2.72187 11.0444 3.26632 10.85 3.77187C10.6944 4.12187 10.3444 4.35521 9.99443 4.35521C9.91665 4.35521 9.79999 4.35521 9.72221 4.31632C9.7611 4.51076 9.7611 4.70521 9.7611 4.86076V5.0941C9.83888 5.0941 9.91665 5.13299 9.99443 5.13299C10.9667 5.13299 11.7444 4.35521 11.7444 3.42188C11.7444 2.44965 10.9667 1.67188 10.0333 1.67188C9.4111 1.67188 8.86665 1.98299 8.55554 2.52743C8.74999 2.6441 8.94443 2.79965 9.09999 3.03299Z" fill="#363636"/>
<path d="M4.66666 6.37819C4.5111 6.14486 4.39443 5.87264 4.31666 5.56153H4.00555C2.99443 5.52264 2.02221 5.87264 1.28332 6.49486L1.16666 6.61153V9.72264H1.94443V6.92264C2.56666 6.49486 3.26666 6.26153 4.00555 6.30041C4.23888 6.30041 4.47221 6.3393 4.66666 6.37819Z" fill="#363636"/>
<path d="M4.00554 5.0944C4.08332 5.0944 4.1611 5.0944 4.23887 5.05551V4.82218C4.23887 4.62773 4.23887 4.43329 4.27776 4.27773C4.19998 4.31662 4.08332 4.31662 4.00554 4.31662C3.49998 4.31662 3.07221 3.88884 3.07221 3.38329C3.07221 2.87773 3.49998 2.44995 4.00554 2.44995C4.39443 2.44995 4.74443 2.68329 4.89998 3.03329C5.05554 2.83884 5.28887 2.6444 5.48332 2.48884C4.97776 1.67218 3.92776 1.39995 3.1111 1.90551C2.29443 2.41106 2.02221 3.46106 2.52776 4.27773C2.83887 4.78329 3.38332 5.0944 4.00554 5.0944Z" fill="#363636"/>
<path d="M10.15 8.8277L10.0722 8.71103C9.29444 7.85548 8.20555 7.34992 7.03889 7.38881C5.87222 7.34992 4.74444 7.85548 3.96666 8.71103L3.88889 8.8277V11.7833C3.88889 12.1333 4.16111 12.4444 4.55 12.4444H9.52777C9.87777 12.4444 10.1889 12.1333 10.1889 11.7833V8.8277H10.15ZM9.37222 11.6666H4.66666V9.09992C5.28889 8.4777 6.14444 8.16659 7.03889 8.16659C7.89444 8.1277 8.75 8.4777 9.37222 9.09992V11.6666Z" fill="#363636"/>
</g>
<defs>
<clipPath id="clip0_0_2612">
<rect width="14" height="14" fill="white"/>
</clipPath>
</defs>
</svg>
