<svg width="14" height="14" viewBox="0 0 14 14" fill="none" xmlns="http://www.w3.org/2000/svg">
<path d="M7 1.75C10.3833 1.75 13.1256 3.88733 13.1256 6.52458C13.1256 9.16125 10.3833 11.2986 7.00058 11.2986C6.66377 11.298 6.32732 11.2766 5.99316 11.2344L3.42183 12.9162C3.12958 13.0707 3.02633 13.0538 3.1465 12.6753L3.66683 10.5297C1.98683 9.67808 0.87558 8.20225 0.87558 6.52458C0.87558 3.88792 3.61725 1.75 7.00058 1.75M10.4469 6.45167L11.3044 5.621C11.3539 5.56961 11.3815 5.50103 11.3814 5.42969C11.3813 5.35836 11.3536 5.28984 11.304 5.23857C11.2543 5.1873 11.1868 5.15729 11.1155 5.15485C11.0442 5.15241 10.9747 5.17774 10.9217 5.2255L9.79708 6.314V5.4145C9.79708 5.34148 9.76807 5.27145 9.71644 5.21981C9.6648 5.16817 9.59477 5.13917 9.52175 5.13917C9.44872 5.13917 9.37869 5.16817 9.32706 5.21981C9.27542 5.27145 9.24641 5.34148 9.24641 5.4145V6.90608C9.23671 6.9487 9.23671 6.99296 9.24641 7.03558V7.875C9.24641 7.94802 9.27542 8.01805 9.32706 8.06969C9.37869 8.12133 9.44872 8.15033 9.52175 8.15033C9.59477 8.15033 9.6648 8.12133 9.71644 8.06969C9.76807 8.01805 9.79708 7.94802 9.79708 7.875V7.07992L10.0462 6.839L10.8792 8.02492C10.9 8.05452 10.9264 8.07975 10.9569 8.09914C10.9875 8.11853 11.0215 8.13172 11.0572 8.13795C11.0928 8.14418 11.1293 8.14333 11.1647 8.13545C11.2 8.12756 11.2334 8.1128 11.263 8.092C11.2926 8.0712 11.3178 8.04478 11.3372 8.01423C11.3566 7.98369 11.3698 7.94962 11.376 7.91398C11.3823 7.87833 11.3814 7.84181 11.3735 7.8065C11.3656 7.77119 11.3509 7.73777 11.3301 7.70817L10.4469 6.45167ZM8.72141 7.574H7.86975V5.42325C7.86649 5.3525 7.83609 5.28572 7.78486 5.2368C7.73364 5.18788 7.66553 5.16059 7.5947 5.16059C7.52387 5.16059 7.45577 5.18788 7.40455 5.2368C7.35332 5.28572 7.32292 5.3525 7.31966 5.42325V7.84933C7.31966 8.001 7.44216 8.12467 7.59441 8.12467H8.72141C8.79444 8.12467 8.86447 8.09566 8.9161 8.04402C8.96774 7.99239 8.99675 7.92236 8.99675 7.84933C8.99675 7.77631 8.96774 7.70628 8.9161 7.65464C8.86447 7.60301 8.79444 7.574 8.72141 7.574ZM5.30483 6.93758L5.71083 5.94125L6.083 6.937L5.30483 6.93758ZM6.77658 7.22167L6.77775 7.21233C6.77755 7.14298 6.75108 7.07628 6.70366 7.02567L6.0935 5.39233C6.06792 5.3145 6.0192 5.24632 5.95384 5.19691C5.88848 5.14751 5.80961 5.11922 5.72775 5.11583C5.64536 5.1158 5.56489 5.14068 5.49691 5.18722C5.42892 5.23375 5.37661 5.29977 5.34683 5.37658L4.37733 7.75367C4.34971 7.82127 4.35009 7.89708 4.37837 7.96442C4.40664 8.03175 4.46051 8.08509 4.52812 8.11271C4.59573 8.14032 4.67154 8.13995 4.73887 8.11167C4.80621 8.08339 4.85955 8.02952 4.88716 7.96192L5.08083 7.48767H6.28833L6.46216 7.95433C6.47402 7.98922 6.49276 8.02136 6.51727 8.04887C6.54178 8.07638 6.57156 8.09869 6.60485 8.11448C6.63813 8.13027 6.67425 8.13922 6.71106 8.1408C6.74787 8.14237 6.78462 8.13655 6.81914 8.12366C6.85365 8.11078 6.88523 8.09109 6.912 8.06578C6.93878 8.04047 6.96019 8.01004 6.97499 7.9763C6.98979 7.94256 6.99767 7.9062 6.99815 7.86936C6.99864 7.83252 6.99173 7.79595 6.97783 7.76183L6.77658 7.22167ZM4.83816 5.42617C4.83832 5.39002 4.83132 5.35419 4.81757 5.32075C4.80383 5.28732 4.78361 5.25693 4.75807 5.23134C4.73253 5.20575 4.70219 5.18546 4.66878 5.17165C4.63537 5.15783 4.59956 5.15076 4.56341 5.15083H2.6705C2.59747 5.15083 2.52744 5.17984 2.47581 5.23148C2.42417 5.28311 2.39516 5.35314 2.39516 5.42617C2.39516 5.49919 2.42417 5.56922 2.47581 5.62086C2.52744 5.67249 2.59747 5.7015 2.6705 5.7015H3.34716V7.88083C3.34716 7.95386 3.37617 8.02389 3.42781 8.07552C3.47944 8.12716 3.54947 8.15617 3.6225 8.15617C3.69552 8.15617 3.76555 8.12716 3.81719 8.07552C3.86882 8.02389 3.89783 7.95386 3.89783 7.88083V5.7015H4.56283C4.59903 5.70165 4.6349 5.69464 4.66838 5.68086C4.70185 5.66707 4.73227 5.6468 4.75786 5.6212C4.78346 5.5956 4.80374 5.56519 4.81752 5.53171C4.8313 5.49824 4.83832 5.46237 4.83816 5.42617Z" fill="black"/>
</svg>
