<svg width="12" height="12" viewBox="0 0 12 12" fill="none" xmlns="http://www.w3.org/2000/svg">
<path d="M9.64028 5.51512C9.60545 5.54999 9.56409 5.57765 9.51857 5.59652C9.47304 5.61539 9.42425 5.6251 9.37496 5.6251C9.32568 5.6251 9.27689 5.61539 9.23136 5.59652C9.18584 5.57765 9.14448 5.54999 9.10965 5.51512L6.37496 2.77996V10.1248C6.37496 10.2243 6.33546 10.3196 6.26513 10.39C6.1948 10.4603 6.09942 10.4998 5.99996 10.4998C5.90051 10.4998 5.80513 10.4603 5.7348 10.39C5.66447 10.3196 5.62496 10.2243 5.62496 10.1248V2.77996L2.89028 5.51512C2.81991 5.58548 2.72448 5.62502 2.62496 5.62502C2.52545 5.62502 2.43002 5.58548 2.35965 5.51512C2.28929 5.44475 2.24976 5.34932 2.24976 5.24981C2.24976 5.1503 2.28929 5.05486 2.35965 4.98449L5.73465 1.60949C5.76948 1.57463 5.81084 1.54697 5.85636 1.5281C5.90189 1.50923 5.95068 1.49951 5.99996 1.49951C6.04925 1.49951 6.09804 1.50923 6.14357 1.5281C6.18909 1.54697 6.23045 1.57463 6.26528 1.60949L9.64028 4.98449C9.67514 5.01932 9.7028 5.06068 9.72167 5.1062C9.74055 5.15173 9.75026 5.20053 9.75026 5.24981C9.75026 5.29909 9.74055 5.34789 9.72167 5.39341C9.7028 5.43893 9.67514 5.48029 9.64028 5.51512Z" fill="white"/>
</svg>
