<svg width="13" height="13" viewBox="0 0 13 13" fill="none" xmlns="http://www.w3.org/2000/svg">
<path fill-rule="evenodd" clip-rule="evenodd" d="M10.3273 3.96982C10.4162 4.0587 10.4661 4.17924 10.4661 4.30491C10.4661 4.43059 10.4162 4.55112 10.3273 4.64L5.82471 9.1426C5.73583 9.23146 5.6153 9.28137 5.48962 9.28137C5.36394 9.28137 5.24341 9.23146 5.15453 9.1426L3.02172 7.00979C2.93538 6.9204 2.88761 6.80068 2.88869 6.67641C2.88977 6.55214 2.93962 6.43326 3.02749 6.34539C3.11537 6.25751 3.23424 6.20767 3.35851 6.20659C3.48278 6.20551 3.60251 6.25328 3.69189 6.33962L5.48962 8.13734L9.65713 3.96982C9.74601 3.88097 9.86655 3.83105 9.99222 3.83105C10.1179 3.83105 10.2384 3.88097 10.3273 3.96982Z" fill="white"/>
</svg>
