<svg width="13" height="13" viewBox="0 0 13 13" fill="none" xmlns="http://www.w3.org/2000/svg">
<path d="M10.5609 4.32743L6.49999 8.28593L2.43911 4.32743C2.36656 4.25656 2.26916 4.21688 2.16774 4.21688C2.06631 4.21688 1.96891 4.25656 1.89636 4.32743C1.86123 4.36185 1.83332 4.40294 1.81427 4.44828C1.79521 4.49362 1.7854 4.54231 1.7854 4.59149C1.7854 4.64068 1.79521 4.68936 1.81427 4.73471C1.83332 4.78005 1.86123 4.82113 1.89636 4.85555L6.21642 9.06755C6.29229 9.1415 6.39404 9.18289 6.49999 9.18289C6.60593 9.18289 6.70768 9.1415 6.78355 9.06755L11.1036 4.85637C11.139 4.82192 11.1671 4.78074 11.1863 4.73524C11.2055 4.68975 11.2154 4.64087 11.2154 4.59149C11.2154 4.54211 11.2055 4.49324 11.1863 4.44774C11.1671 4.40225 11.139 4.36106 11.1036 4.32662C11.0311 4.25574 10.9337 4.21606 10.8322 4.21606C10.7308 4.21606 10.6334 4.25574 10.5609 4.32662V4.32743Z" fill="#757575"/>
</svg>
